<?xml version="1.0" encoding="UTF-8" standalone="no"?>
<svg
   width="1024"
   height="1024"
   viewBox="0 0 1024 1024"
   fill="none"
   version="1.1"
   id="svg1"
   sodipodi:docname="Shape.svg"
   inkscape:export-filename="Shape.png"
   inkscape:export-xdpi="96"
   inkscape:export-ydpi="96"
   inkscape:version="1.4.2 (f4327f4, 2025-05-13)"
   xmlns:inkscape="http://www.inkscape.org/namespaces/inkscape"
   xmlns:sodipodi="http://sodipodi.sourceforge.net/DTD/sodipodi-0.dtd"
   xmlns="http://www.w3.org/2000/svg"
   xmlns:svg="http://www.w3.org/2000/svg">
  <sodipodi:namedview
     id="namedview1"
     pagecolor="#ffffff"
     bordercolor="#000000"
     borderopacity="0.25"
     inkscape:showpageshadow="2"
     inkscape:pageopacity="0.0"
     inkscape:pagecheckerboard="0"
     inkscape:deskcolor="#d1d1d1"
     inkscape:zoom="1.1064453"
     inkscape:cx="511.5481"
     inkscape:cy="512"
     inkscape:window-width="2560"
     inkscape:window-height="1351"
     inkscape:window-x="2551"
     inkscape:window-y="-9"
     inkscape:window-maximized="1"
     inkscape:current-layer="svg1" />
  <defs
     id="defs1" />
  <path
     id="Shape"
     d="m 784.92556,173.5269 c 0,0 -0.0989,0.0322 -0.0989,0.0322 -22.49231,12.69332 -50.25608,12.69332 -72.7494,0 -22.49233,-12.66115 -36.37471,-36.13024 -36.37471,-61.51699 0,0 0,-0.096 0,-0.096 0,-19.887579 -8.08649,-38.943857 -22.49231,-53.012246 C 638.83636,44.897485 619.3239,37 598.95835,37 c -48.35709,0 -125.55981,0 -173.9169,0 -20.36555,0 -39.87801,7.897485 -54.25188,21.93388 -14.40583,14.068389 -22.49232,33.124667 -22.49232,53.01224 0,0 0,0.096 0,0.096 0,25.38675 -13.88237,48.85585 -36.3747,61.51699 -22.49332,12.69332 -50.25709,12.69332 -72.74941,0 0,0 -0.0989,-0.0322 -0.0989,-0.0322 -17.61445,-9.94379 -38.56839,-12.62895 -58.24469,-7.48101 -19.6443,5.11576 -36.40765,17.68133 -46.59013,34.91493 -24.16246,40.8939 -62.796383,106.18446 -86.958845,147.07836 -10.182336,17.20143 -12.932534,37.66544 -7.661313,56.88099 5.27123,19.18435 18.138283,35.55478 35.752738,45.49857 0,0 0.09819,0.0643 0.09819,0.0643 22.492719,12.69332 36.3747,36.13023 36.3747,61.51688 0,25.38666 -13.881981,48.82357 -36.3747,61.51689 0,0 -0.0983,0.0643 -0.0983,0.0643 -17.614355,9.94389 -30.481417,26.31431 -35.752647,45.49866 -5.271232,19.21556 -2.521014,39.67859 7.661322,56.88099 24.162462,40.8939 62.796385,106.18446 86.958845,147.07836 10.18248,17.23361 26.94583,29.79917 46.59013,34.91493 19.6763,5.14796 40.63024,2.46181 58.24469,-7.48198 0,0 0.0989,-0.0313 0.0989,-0.0313 22.49232,-12.69333 50.25609,-12.69333 72.74941,0 22.49233,12.66115 36.3747,36.13023 36.3747,61.51688 0,0 0,0.0956 0,0.0956 0,19.88758 8.08649,38.94415 22.49232,53.01279 C 385.16344,979.10256 404.6759,987 425.04145,987 c 48.35709,0 125.55981,0 173.9169,0 20.36457,0 39.87801,-7.89744 54.25189,-21.93382 14.40582,-14.06863 22.49231,-33.12424 22.49231,-53.01278 0,0 0,-0.0956 0,-0.0956 0,-25.38665 13.88238,-48.85575 36.37471,-61.51689 22.49332,-12.69332 50.25709,-12.69332 72.7494,0 0,0 0.0989,0.0312 0.0989,0.0312 17.61446,9.94478 38.56838,12.62994 58.24468,7.482 19.64431,-5.11576 36.40766,-17.68133 46.58994,-34.91494 24.16257,-40.8939 62.79689,-106.18445 86.95941,-147.07835 10.18229,-17.2024 12.93244,-37.66544 7.66099,-56.88099 -5.27146,-19.18435 -18.13796,-35.55478 -35.75238,-45.49857 0,0 -0.0989,-0.0643 -0.0989,-0.0643 -22.49233,-12.69338 -36.3747,-36.1303 -36.3747,-61.51695 0,-25.38665 13.88237,-48.82357 36.3747,-61.51689 0,0 0.0989,-0.0643 0.0989,-0.0643 17.61442,-9.94378 30.48092,-26.31422 35.75238,-45.49856 5.27145,-19.21555 2.5213,-39.67957 -7.66099,-56.88099 -24.16252,-40.89391 -62.79684,-106.18445 -86.95941,-147.07835 -10.18228,-17.23362 -26.94563,-29.79918 -46.58994,-34.91493 -19.6763,-5.14796 -40.63022,-2.46278 -58.24468,7.48101 z M 511.99991,288.18429 c -126.47685,0 -229.18372,100.30108 -229.18372,223.81571 0,123.51365 102.70687,223.81474 229.18372,223.81474 126.47684,0 229.18471,-100.30109 229.18471,-223.81474 0,-123.51463 -102.70787,-223.81571 -229.18471,-223.81571 z"
     fill="#ffffff"
     fill-rule="evenodd"
     fill-opacity="1"
     style="stroke-width:0.987087" />
</svg>
